<svg width="42" height="42" viewBox="0 0 42 42" fill="none" xmlns="http://www.w3.org/2000/svg">
<path d="M36.2106 5.46924H6.75153C6.04307 5.46924 5.4707 6.04161 5.4707 6.75007V36.2092C5.4707 36.9176 6.04307 37.49 6.75153 37.49H36.2106C36.9191 37.49 37.4915 36.9176 37.4915 36.2092V6.75007C37.4915 6.04161 36.9191 5.46924 36.2106 5.46924ZM32.5122 14.8153H29.9546C27.9493 14.8153 27.561 15.7679 27.561 17.1688V20.2548H32.3481L31.7237 25.086H27.561V37.49H22.5698V25.09H18.3951V20.2548H22.5698V16.6925C22.5698 12.5578 25.0954 10.3044 28.7858 10.3044C30.555 10.3044 32.072 10.4365 32.5163 10.4965V14.8153H32.5122Z" fill="#2091F9"/>
</svg>
