<svg width="42" height="42" viewBox="0 0 42 42" fill="none" xmlns="http://www.w3.org/2000/svg">
<path d="M36.197 5.46924H6.73786C6.0294 5.46924 5.45703 6.04161 5.45703 6.75007V36.2092C5.45703 36.9176 6.0294 37.49 6.73786 37.49H36.197C36.9054 37.49 37.4778 36.9176 37.4778 36.2092V6.75007C37.4778 6.04161 36.9054 5.46924 36.197 5.46924ZM14.9552 32.7549H10.2041V17.473H14.9552V32.7549ZM12.5817 15.3837C12.037 15.3837 11.5046 15.2222 11.0517 14.9196C10.5989 14.617 10.2459 14.1869 10.0375 13.6837C9.82906 13.1805 9.77453 12.6268 9.88078 12.0926C9.98704 11.5585 10.2493 11.0678 10.6344 10.6827C11.0196 10.2975 11.5102 10.0353 12.0444 9.92901C12.5786 9.82276 13.1323 9.87729 13.6355 10.0857C14.1387 10.2941 14.5688 10.6471 14.8713 11.1C15.1739 11.5528 15.3354 12.0852 15.3354 12.6299C15.3314 14.1509 14.0986 15.3837 12.5817 15.3837ZM32.7427 32.7549H27.9957V25.3221C27.9957 23.549 27.9636 21.2715 25.5261 21.2715C23.0565 21.2715 22.6762 23.2007 22.6762 25.194V32.7549H17.9331V17.473H22.4881V19.5624H22.5521C23.1845 18.3616 24.7335 17.0928 27.047 17.0928C31.8582 17.0928 32.7427 20.2588 32.7427 24.3735V32.7549Z" fill="#2091F9"/>
</svg>
