<svg width="62" height="58" viewBox="0 0 62 58" fill="none" xmlns="http://www.w3.org/2000/svg">
<path d="M62 40.4343V51.9015C62 53.4221 61.3468 54.8805 60.1841 55.9557C59.0213 57.031 57.4443 57.6351 55.8 57.6351H43.4V51.9015C43.4 50.3809 42.7468 48.9225 41.5841 47.8472C40.4213 46.772 38.8443 46.1679 37.2 46.1679C35.5557 46.1679 33.9787 46.772 32.8159 47.8472C31.6532 48.9225 31 50.3809 31 51.9015V57.6351H18.6C16.9557 57.6351 15.3787 57.031 14.2159 55.9557C13.0532 54.8805 12.4 53.4221 12.4 51.9015V40.4343H6.2C4.55566 40.4343 2.97866 39.8303 1.81594 38.755C0.653212 37.6798 0 36.2214 0 34.7008C0 33.1801 0.653212 31.7218 1.81594 30.6465C2.97866 29.5713 4.55566 28.9672 6.2 28.9672H12.4V17.5C12.4 14.3466 15.19 11.7665 18.6 11.7665H31V6.03289C31 4.51225 31.6532 3.0539 32.8159 1.97864C33.9787 0.903388 35.5557 0.299316 37.2 0.299316C38.8443 0.299316 40.4213 0.903388 41.5841 1.97864C42.7468 3.0539 43.4 4.51225 43.4 6.03289V11.7665H55.8C57.4443 11.7665 59.0213 12.3705 60.1841 13.4458C61.3468 14.521 62 15.9794 62 17.5V28.9672H55.8C54.1557 28.9672 52.5787 29.5713 51.4159 30.6465C50.2532 31.7218 49.6 33.1801 49.6 34.7008C49.6 36.2214 50.2532 37.6798 51.4159 38.755C52.5787 39.8303 54.1557 40.4343 55.8 40.4343H62Z" fill="#2091F9"/>
</svg>
