<svg width="41" height="42" viewBox="0 0 41 42" fill="none" xmlns="http://www.w3.org/2000/svg">
<path d="M37.1455 11.165C35.9207 11.6933 34.5878 12.0736 33.2149 12.2217C34.6403 11.3748 35.7077 10.037 36.2168 8.45921C34.8793 9.25489 33.414 9.81283 31.886 10.1083C31.2474 9.42555 30.475 8.88165 29.617 8.51048C28.7589 8.13931 27.8337 7.94882 26.8988 7.95088C23.1163 7.95088 20.0744 11.0169 20.0744 14.7793C20.0744 15.3077 20.1384 15.836 20.2425 16.3443C14.5788 16.0481 9.52753 13.3424 6.16936 9.19969C5.55746 10.2448 5.2368 11.4348 5.24075 12.6459C5.24075 15.0155 6.44553 17.1048 8.28273 18.3336C7.20004 18.291 6.14271 17.9934 5.19672 17.4651V17.5491C5.19672 20.8673 7.54225 23.617 10.6683 24.2495C10.0813 24.4019 9.47753 24.4799 8.87111 24.4816C8.42682 24.4816 8.00655 24.4376 7.58227 24.3775C8.44683 27.0833 10.9645 29.0486 13.9624 29.1126C11.6169 30.9498 8.67898 32.0305 5.48891 32.0305C4.91654 32.0305 4.3882 32.0105 3.83984 31.9465C6.86581 33.8877 10.4561 35.0084 14.3226 35.0084C26.8748 35.0084 33.7432 24.6097 33.7432 15.5838C33.7432 15.2876 33.7432 14.9915 33.7232 14.6953C35.0521 13.7226 36.2168 12.5178 37.1455 11.165Z" fill="#2091F9"/>
</svg>
